<svg xmlns="http://www.w3.org/2000/svg" width="24" height="24" viewBox="0 0 24 24">
    <g transform="translate(-60 -1249)" clip-path="url(#a)">
        <path class="search-icon" d="M7.528,25.778A1.518,1.518,0,0,1,6,24.25V12.75a1.518,1.518,0,0,1,1.528-1.528h5.278V9.528A1.518,1.518,0,0,1,14.333,8h3.333a1.518,1.518,0,0,1,1.528,1.528v1.694h5.278A1.518,1.518,0,0,1,26,12.75v11.5a1.518,1.518,0,0,1-1.528,1.528Zm6.111-14.556h4.722V9.528a.62.62,0,0,0-.222-.458.683.683,0,0,0-.472-.208H14.333a.683.683,0,0,0-.472.208.62.62,0,0,0-.222.458Zm11.5,8.306H17.833v1.417H14.167V19.528H6.861V24.25a.717.717,0,0,0,.667.667H24.472a.717.717,0,0,0,.667-.667Zm-10.111.556H17V18.111H15.028ZM6.861,18.667h7.306V17.278h3.667v1.389h7.306V12.75a.683.683,0,0,0-.208-.472.62.62,0,0,0-.458-.222H7.528a.62.62,0,0,0-.458.222.683.683,0,0,0-.208.472ZM16,19.111Z" transform="translate(56 1244)" fill="#ff8a34"></path>
    </g>
</svg>