<svg xmlns="http://www.w3.org/2000/svg" width="24" height="24" viewBox="0 0 24 24">
    <g transform="translate(-60 -1188)" clip-path="url(#a)">
        <path class="search-icon" d="M18,15.65a1.639,1.639,0,1,0-1.17-.48A1.592,1.592,0,0,0,18,15.65Zm0,11.04a30.977,30.977,0,0,0,5.985-6.78,11.424,11.424,0,0,0,2.085-5.67,8.1,8.1,0,0,0-2.325-5.985A7.8,7.8,0,0,0,18,5.93a7.8,7.8,0,0,0-5.745,2.325A8.1,8.1,0,0,0,9.93,14.24a11.321,11.321,0,0,0,2.115,5.67A32.424,32.424,0,0,0,18,26.69Zm0,1.26a38.117,38.117,0,0,1-6.78-7.5A11.809,11.809,0,0,1,9,14.24,8.719,8.719,0,0,1,11.715,7.5a9.137,9.137,0,0,1,12.57,0A8.719,8.719,0,0,1,27,14.24a11.809,11.809,0,0,1-2.22,6.21A38.117,38.117,0,0,1,18,27.95ZM18,14.24Z" transform="translate(54 1183.525)" fill="#ff8a34"></path>
    </g>
</svg>