<svg xmlns="http://www.w3.org/2000/svg" width="24" height="24" viewBox="0 0 24 24">
    <g transform="translate(-60 -1220)" clip-path="url(#a)">
        <path class="search-icon" d="M12,11.6c-1.1,0-2.2-0.4-3-1.2C8.1,9.5,7.8,8.6,7.8,7.3s0.4-2.2,1.2-3s1.9-1.2,3-1.2s2.2,0.4,3,1.2s1.2,1.9,1.2,3 s-0.4,2.2-1.2,3C14.2,11.2,13.1,11.6,12,11.6z M1.4,20.9v-2c0-0.6,0.2-1.1,0.5-1.7c0.4-0.5,0.8-0.9,1.4-1.2c1.4-0.7,2.9-1.2,4.3-1.5 s2.8-0.5,4.3-0.5s2.8,0.2,4.3,0.5c1.5,0.4,2.9,0.9,4.3,1.5c0.6,0.3,1.1,0.7,1.4,1.2c0.4,0.5,0.5,1.1,0.5,1.7v2H1.4z M2.6,19.8h18.9 v-1c0-0.4-0.1-0.7-0.4-1.1c-0.3-0.4-0.6-0.6-1.1-0.9c-1.2-0.6-2.6-1.1-4-1.4C14.8,15.2,13.4,15,12,15s-2.7,0.2-4.1,0.5 c-1.4,0.4-2.6,0.8-4,1.4c-0.4,0.3-0.8,0.5-1.1,0.9c-0.3,0.4-0.4,0.7-0.4,1.1L2.6,19.8L2.6,19.8z M12,10.5c0.9,0,1.6-0.4,2.2-1 c0.6-0.6,1-1.3,1-2.2s-0.4-1.6-1-2.2c-0.6-0.6-1.3-1-2.2-1s-1.6,0.4-2.2,1c-0.6,0.6-1,1.3-1,2.2s0.4,1.6,1,2.2 C10.4,10.2,11.1,10.5,12,10.5z" transform="translate(60 1220)" fill="#ff8a34"></path>
    </g>
</svg>