<svg xmlns="http://www.w3.org/2000/svg" width="16" height="16.019" viewBox="0 0 16 16.019">
  <path id="register_icon" d="M121.159-824.981a1.112,1.112,0,0,1-.812-.348,1.112,1.112,0,0,1-.348-.812v-11.594a1.112,1.112,0,0,1,.348-.812,1.112,1.112,0,0,1,.812-.348h7.826l-1.159,1.159h-6.667v11.594h11.594v-6.725l1.159-1.159v7.884a1.112,1.112,0,0,1-.348.812,1.112,1.112,0,0,1-.812.348ZM126.957-831.937Zm3.517-6.8.831.812L125.8-832.44v1.662h1.643l5.527-5.527.812.812-5.855,5.874h-3.285V-832.9Zm3.3,3.246-3.3-3.246,1.932-1.932a1.11,1.11,0,0,1,.818-.328,1.1,1.1,0,0,1,.825.348l1.623,1.643a1.156,1.156,0,0,1,.329.821,1.064,1.064,0,0,1-.348.8Z" transform="translate(-120 841)" fill="#fff"/>
</svg>
