<svg xmlns="http://www.w3.org/2000/svg" width="24" height="24" viewBox="0 0 24 24">
    <g transform="translate(-270 -1549)">
        <path class="search-icon" d="M17213.879-1389.245l-4.07-4.07a.68.68,0,0,1,0-.959.673.673,0,0,1,.959,0l4.074,4.07a.68.68,0,0,1,0,.959.689.689,0,0,1-.479.2A.693.693,0,0,1,17213.879-1389.245Zm-16.842-11.307a7.068,7.068,0,0,1,7.057-7.06,7.067,7.067,0,0,1,7.059,7.06,7.066,7.066,0,0,1-7.059,7.055A7.067,7.067,0,0,1,17197.037-1400.552Zm1.283,0a5.784,5.784,0,0,0,5.773,5.772,5.779,5.779,0,0,0,5.771-5.772,5.78,5.78,0,0,0-5.771-5.776A5.784,5.784,0,0,0,17198.32-1400.552Z" transform="translate(-16924.037 2959.611)" fill="#ff8a34"></path>
        <rect width="24" height="24" transform="translate(270 1549)" fill="none"></rect>
    </g>
</svg>