<svg xmlns="http://www.w3.org/2000/svg" width="24" height="24" viewBox="0 0 24 24">
    <g transform="translate(-60 -1220)" clip-path="url(#a)">
        <path class="search-icon" d="M4.8,24c-0.6,0-1.1-0.2-1.5-0.6s-0.6-0.9-0.6-1.5V7.6C2.8,7,3,6.5,3.3,6.1s0.9-0.6,1.5-0.6h2.6V4.6c0-1.3,0.4-2.4,1.3-3.3 C9.6,0.4,10.7,0,12,0s2.4,0.4,3.3,1.3s1.3,2,1.3,3.3v0.9h2.6c0.6,0,1.1,0.2,1.5,0.6s0.6,0.9,0.6,1.5v14.3c0,0.6-0.2,1.1-0.6,1.5 S19.8,24,19.2,24H4.8z M4.8,23h14.3c0.3,0,0.5-0.1,0.8-0.3c0.2-0.2,0.3-0.5,0.3-0.8V7.6c0-0.3-0.1-0.5-0.3-0.8 c-0.2-0.2-0.5-0.3-0.8-0.3h-2.6v3.7c0,0.1,0,0.3-0.1,0.3c-0.1,0.1-0.2,0.1-0.3,0.1c-0.1,0-0.3,0-0.3-0.1c-0.1-0.1-0.1-0.2-0.1-0.3 V6.5H8.3v3.7c0,0.1,0,0.3-0.1,0.3c-0.1,0.1-0.2,0.1-0.3,0.1s-0.3,0-0.3-0.1c-0.1-0.1-0.1-0.2-0.1-0.3V6.5H4.8 c-0.3,0-0.5,0.1-0.8,0.3C3.8,7.1,3.7,7.3,3.7,7.6v14.3c0,0.3,0.1,0.5,0.3,0.8C4.3,22.9,4.6,23,4.8,23z M8.3,5.5h7.3V4.6 c0-1-0.4-1.9-1.1-2.6C13.9,1.3,13,1,12,1S10.1,1.3,9.4,2S8.3,3.6,8.3,4.6V5.5z M3.7,23V6.5V23z" transform="translate(60 1220)" fill="#ff8a34"></path>
    </g>
</svg>