<svg xmlns="http://www.w3.org/2000/svg" width="24" height="24" viewBox="0 0 24 24">
    <g transform="translate(-60 -1278)" clip-path="url(#a)">
        <path class="search-icon" d="M18,19.25a5,5,0,0,0,2.37-.57,5.477,5.477,0,0,0,1.8-1.5,6.885,6.885,0,0,0-1.98-.93,8.2,8.2,0,0,0-4.395,0,6.928,6.928,0,0,0-1.965.93,5.477,5.477,0,0,0,1.8,1.5,5,5,0,0,0,2.37.57Zm0-6a1.579,1.579,0,0,0,1.185-.48,1.619,1.619,0,0,0,.465-1.17,1.579,1.579,0,0,0-.48-1.185A1.619,1.619,0,0,0,18,9.95a1.655,1.655,0,0,0-1.17,2.82A1.592,1.592,0,0,0,18,13.25Zm0,13.44a30.977,30.977,0,0,0,5.985-6.78,11.424,11.424,0,0,0,2.085-5.67,8.1,8.1,0,0,0-2.325-5.985A7.8,7.8,0,0,0,18,5.93a7.8,7.8,0,0,0-5.745,2.325A8.1,8.1,0,0,0,9.93,14.24a11.321,11.321,0,0,0,2.115,5.67A32.424,32.424,0,0,0,18,26.69Zm0,1.26a38.117,38.117,0,0,1-6.78-7.5A11.809,11.809,0,0,1,9,14.24,8.719,8.719,0,0,1,11.715,7.5a9.137,9.137,0,0,1,12.57,0A8.719,8.719,0,0,1,27,14.24a11.809,11.809,0,0,1-2.22,6.21A38.117,38.117,0,0,1,18,27.95ZM18,14.24Z" transform="translate(54 1274)" fill="#ff8a34"></path>
    </g>
</svg>